<svg xmlns="http://www.w3.org/2000/svg" width="23" height="19" viewBox="0 0 23 19">
  <metadata><?xpacket begin="﻿" id="W5M0MpCehiHzreSzNTczkc9d"?>
<x:xmpmeta xmlns:x="adobe:ns:meta/" x:xmptk="Adobe XMP Core 5.6-c138 79.159824, 2016/09/14-01:09:01        ">
   <rdf:RDF xmlns:rdf="http://www.w3.org/1999/02/22-rdf-syntax-ns#">
      <rdf:Description rdf:about=""/>
   </rdf:RDF>
</x:xmpmeta>
                                                                                                    
                                                                                                    
                                                                                                    
                                                                                                    
                                                                                                    
                                                                                                    
                                                                                                    
                                                                                                    
                                                                                                    
                                                                                                    
                                                                                                    
                                                                                                    
                                                                                                    
                                                                                                    
                                                                                                    
                                                                                                    
                                                                                                    
                                                                                                    
                                                                                                    
                                                                                                    
                           
<?xpacket end="w"?></metadata>
<defs>
    <style>
      .cls-1 {
        fill: #bdbdbd;
        fill-rule: evenodd;
      }
    </style>
  </defs>
  <path id="Forma_1" data-name="Forma 1" class="cls-1" d="M1288,1252.25a9.24,9.24,0,0,1-2.71.75,4.778,4.778,0,0,0,2.07-2.65,9.216,9.216,0,0,1-2.99,1.16,4.688,4.688,0,0,0-3.45-1.51,4.757,4.757,0,0,0-4.71,4.8,4.921,4.921,0,0,0,.12,1.09,13.347,13.347,0,0,1-9.73-5.01,4.9,4.9,0,0,0-.64,2.41,4.833,4.833,0,0,0,2.1,3.99,4.61,4.61,0,0,1-2.14-.6v0.06a4.793,4.793,0,0,0,3.79,4.71,4.635,4.635,0,0,1-1.24.16,5.168,5.168,0,0,1-.89-0.08,4.739,4.739,0,0,0,4.41,3.33,9.358,9.358,0,0,1-5.86,2.05,10.416,10.416,0,0,1-1.13-.06,13.208,13.208,0,0,0,7.23,2.15c8.68,0,13.43-7.31,13.43-13.65,0-.21-0.01-0.41-0.01-0.62A9.568,9.568,0,0,0,1288,1252.25Z" transform="translate(-1265 -1250)"/>
</svg>
