<svg xmlns="http://www.w3.org/2000/svg" width="30" height="30" viewBox="0 0 30 30">
  <metadata><?xpacket begin="﻿" id="W5M0MpCehiHzreSzNTczkc9d"?>
<x:xmpmeta xmlns:x="adobe:ns:meta/" x:xmptk="Adobe XMP Core 5.6-c138 79.159824, 2016/09/14-01:09:01        ">
   <rdf:RDF xmlns:rdf="http://www.w3.org/1999/02/22-rdf-syntax-ns#">
      <rdf:Description rdf:about=""/>
   </rdf:RDF>
</x:xmpmeta>
                                                                                                    
                                                                                                    
                                                                                                    
                                                                                                    
                                                                                                    
                                                                                                    
                                                                                                    
                                                                                                    
                                                                                                    
                                                                                                    
                                                                                                    
                                                                                                    
                                                                                                    
                                                                                                    
                                                                                                    
                                                                                                    
                                                                                                    
                                                                                                    
                                                                                                    
                                                                                                    
                           
<?xpacket end="w"?></metadata>
<defs>
    <style>
      .cls-1 {
        fill-rule: evenodd;
      }
    </style>
  </defs>
  <path id="Forma_1" data-name="Forma 1" class="cls-1" d="M802.231,2396.65l28.421-28.42,1.117,1.12-28.421,28.42Zm4.506-19.18a4.735,4.735,0,1,0-4.737-4.73A4.738,4.738,0,0,0,806.737,2377.47Zm0-7.89a3.155,3.155,0,1,1-3.158,3.16A3.164,3.164,0,0,1,806.737,2369.58Zm20.526,18.95a4.735,4.735,0,1,0,4.737,4.73A4.738,4.738,0,0,0,827.263,2388.53Zm0,7.89a3.155,3.155,0,1,1,3.158-3.16A3.164,3.164,0,0,1,827.263,2396.42Z" transform="translate(-802 -2368)"/>
</svg>
