<svg xmlns="http://www.w3.org/2000/svg" width="39" height="29" viewBox="0 0 39 29">
  <metadata><?xpacket begin="﻿" id="W5M0MpCehiHzreSzNTczkc9d"?>
<x:xmpmeta xmlns:x="adobe:ns:meta/" x:xmptk="Adobe XMP Core 5.6-c138 79.159824, 2016/09/14-01:09:01        ">
   <rdf:RDF xmlns:rdf="http://www.w3.org/1999/02/22-rdf-syntax-ns#">
      <rdf:Description rdf:about=""/>
   </rdf:RDF>
</x:xmpmeta>
                                                                                                    
                                                                                                    
                                                                                                    
                                                                                                    
                                                                                                    
                                                                                                    
                                                                                                    
                                                                                                    
                                                                                                    
                                                                                                    
                                                                                                    
                                                                                                    
                                                                                                    
                                                                                                    
                                                                                                    
                                                                                                    
                                                                                                    
                                                                                                    
                                                                                                    
                                                                                                    
                           
<?xpacket end="w"?></metadata>
<defs>
    <style>
      .cls-1 {
        fill-rule: evenodd;
      }
    </style>
  </defs>
  <path id="Forma_1" data-name="Forma 1" class="cls-1" d="M1417.26,2369h-33.52a2.766,2.766,0,0,0-2.74,2.78v23.44a2.766,2.766,0,0,0,2.74,2.78h33.52a2.766,2.766,0,0,0,2.74-2.78v-23.44A2.766,2.766,0,0,0,1417.26,2369Zm1.44,26.22a1.451,1.451,0,0,1-1.44,1.46h-33.52a1.451,1.451,0,0,1-1.44-1.46v-23.44a1.451,1.451,0,0,1,1.44-1.46h33.52a1.451,1.451,0,0,1,1.44,1.46v23.44Zm-27.3-7.11h-5.85a0.66,0.66,0,0,0,0,1.32h5.85A0.66,0.66,0,0,0,1391.4,2388.11Zm8.45,0H1394a0.66,0.66,0,0,0,0,1.32h5.85A0.66,0.66,0,0,0,1399.85,2388.11Zm-13.65,3.3h-0.65a0.66,0.66,0,0,0,0,1.32h0.65A0.66,0.66,0,0,0,1386.2,2391.41Zm3.9,0h-1.3a0.66,0.66,0,0,0,0,1.32h1.3A0.66,0.66,0,0,0,1390.1,2391.41Zm3.25,0h-0.65a0.66,0.66,0,0,0,0,1.32h0.65A0.66,0.66,0,0,0,1393.35,2391.41Zm3.9,0h-1.3a0.66,0.66,0,0,0,0,1.32h1.3A0.66,0.66,0,0,0,1397.25,2391.41Zm2.14,0.19a0.65,0.65,0,1,0,.92,0A0.678,0.678,0,0,0,1399.39,2391.6Zm12.81-6.12a4.554,4.554,0,0,0-2.28.62,4.489,4.489,0,0,0-2.27-.62,4.61,4.61,0,0,0,0,9.22,4.489,4.489,0,0,0,2.27-.62A4.591,4.591,0,1,0,1412.2,2385.48Zm-1.3,4.61a1.377,1.377,0,1,1-.98-2.35A3.277,3.277,0,0,1,1410.9,2390.09Zm-6.5,0a3.271,3.271,0,0,1,3.25-3.29,3.191,3.191,0,0,1,1.16.22,4.642,4.642,0,0,0,0,6.14,3.2,3.2,0,0,1-1.16.23A3.28,3.28,0,0,1,1404.4,2390.09Zm7.8,3.3a3.2,3.2,0,0,1-1.16-.23,4.642,4.642,0,0,0,0-6.14,3.191,3.191,0,0,1,1.16-.22A3.3,3.3,0,0,1,1412.2,2393.39Zm-25.83-9.89h8.76a1.483,1.483,0,0,0,1.47-1.49v-6.25a1.483,1.483,0,0,0-1.47-1.49h-8.76a1.483,1.483,0,0,0-1.47,1.49v6.25A1.483,1.483,0,0,0,1386.37,2383.5Zm2.43-3.95h-2.6v-1.32h2.6v1.32Zm-2.6,2.46v-1.15h2.6v1.15a0.881,0.881,0,0,0,.02.17h-2.45A0.163,0.163,0,0,1,1386.2,2382.01Zm9.1-2.46h-2.6v-1.15a0.163,0.163,0,0,1,.17-0.17h2.26a0.985,0.985,0,0,0,.17-0.02v1.34Zm-0.17,2.63h-2.45a0.881,0.881,0,0,0,.02-0.17v-1.15h2.6v1.15A0.163,0.163,0,0,1,1395.13,2382.18Zm0-6.59a0.169,0.169,0,0,1,.17.17v0.98a0.169,0.169,0,0,1-.17.17h-2.26a1.483,1.483,0,0,0-1.47,1.49v3.61a0.163,0.163,0,0,1-.17.17h-0.96a0.163,0.163,0,0,1-.17-0.17v-6.25a0.169,0.169,0,0,1,.17-0.17h4.86Zm-8.76,0h2.45a0.985,0.985,0,0,0-.02.17v1.15h-2.6v-1.15A0.169,0.169,0,0,1,1386.37,2375.59Z" transform="translate(-1381 -2369)"/>
</svg>
