<svg xmlns="http://www.w3.org/2000/svg" width="30" height="17" viewBox="0 0 30 17">
  <metadata><?xpacket begin="﻿" id="W5M0MpCehiHzreSzNTczkc9d"?>
<x:xmpmeta xmlns:x="adobe:ns:meta/" x:xmptk="Adobe XMP Core 5.6-c138 79.159824, 2016/09/14-01:09:01        ">
   <rdf:RDF xmlns:rdf="http://www.w3.org/1999/02/22-rdf-syntax-ns#">
      <rdf:Description rdf:about=""/>
   </rdf:RDF>
</x:xmpmeta>
                                                                                                    
                                                                                                    
                                                                                                    
                                                                                                    
                                                                                                    
                                                                                                    
                                                                                                    
                                                                                                    
                                                                                                    
                                                                                                    
                                                                                                    
                                                                                                    
                                                                                                    
                                                                                                    
                                                                                                    
                                                                                                    
                                                                                                    
                                                                                                    
                                                                                                    
                                                                                                    
                           
<?xpacket end="w"?></metadata>
<defs>
    <style>
      .cls-1 {
        fill: #bdbdbd;
        fill-rule: evenodd;
      }
    </style>
  </defs>
  <path id="Forma_1" data-name="Forma 1" class="cls-1" d="M1198.84,1266.36c-0.04-.08-0.07-0.15-0.1-0.2a15.615,15.615,0,0,0-2.99-3.43l-0.03-.03-0.01-.01-0.02-.02h-0.01c-0.67-.63-1.09-1.06-1.27-1.27a1.218,1.218,0,0,1-.22-1.26,12.152,12.152,0,0,1,1.41-2.03c0.43-.55.76-0.99,1.01-1.32,1.8-2.38,2.59-3.9,2.35-4.56l-0.1-.16a0.924,0.924,0,0,0-.48-0.26,2.478,2.478,0,0,0-1-.03l-4.5.03a0.534,0.534,0,0,0-.31,0c-0.14.04-.2,0.05-0.2,0.05l-0.08.04-0.06.05a0.625,0.625,0,0,0-.18.16,1.174,1.174,0,0,0-.15.27,25.619,25.619,0,0,1-1.67,3.49c-0.39.64-.74,1.2-1.07,1.67a7.6,7.6,0,0,1-.81,1.04,6.627,6.627,0,0,1-.59.54,0.6,0.6,0,0,1-.41.17c-0.09-.02-0.18-0.05-0.26-0.07a0.918,0.918,0,0,1-.35-0.38,1.633,1.633,0,0,1-.18-0.6q-0.045-.36-0.06-0.63c0-.18,0-0.42.01-0.74s0.02-.54.02-0.66c0-.39,0-0.82.02-1.28s0.03-.82.04-1.09,0.01-.55.01-0.85a4.253,4.253,0,0,0-.05-0.71,2.27,2.27,0,0,0-.17-0.5,0.826,0.826,0,0,0-.32-0.37,1.661,1.661,0,0,0-.52-0.21,10.7,10.7,0,0,0-2.11-.2,10.318,10.318,0,0,0-3.73.37,2.041,2.041,0,0,0-.59.47c-0.19.22-.22,0.35-0.08,0.37a1.931,1.931,0,0,1,1.33.67l0.09,0.18a3.127,3.127,0,0,1,.22.72,7.42,7.42,0,0,1,.14,1.13,12.474,12.474,0,0,1,0,1.94q-0.075.81-.15,1.26a2.782,2.782,0,0,1-.21.73,2.91,2.91,0,0,1-.19.34,0.23,0.23,0,0,1-.08.07,0.984,0.984,0,0,1-.42.08,1.034,1.034,0,0,1-.53-0.21,4.343,4.343,0,0,1-.65-0.6,8.568,8.568,0,0,1-.75-1.07,15.376,15.376,0,0,1-.88-1.61l-0.25-.45c-0.15-.29-0.37-0.71-0.64-1.26s-0.51-1.09-.72-1.61a1.063,1.063,0,0,0-.37-0.5l-0.08-.04a1.3,1.3,0,0,0-.25-0.14,1.893,1.893,0,0,0-.36-0.1l-4.28.03a1.082,1.082,0,0,0-.89.3l-0.06.09a0.521,0.521,0,0,0-.05.25,1.138,1.138,0,0,0,.1.42q0.93,2.19,2.03,4.22c0.74,1.36,1.38,2.45,1.92,3.28s1.09,1.6,1.65,2.34,0.94,1.2,1.12,1.41,0.32,0.36.43,0.47l0.39,0.37a9.821,9.821,0,0,0,1.1.89,17.977,17.977,0,0,0,1.61,1.03,8.946,8.946,0,0,0,2.05.82,6.946,6.946,0,0,0,2.28.25h1.8a1.244,1.244,0,0,0,.83-0.34l0.06-.08a1.1,1.1,0,0,0,.12-0.28,1.88,1.88,0,0,0,.05-0.43,5.025,5.025,0,0,1,.1-1.2,3.15,3.15,0,0,1,.27-0.81,2.358,2.358,0,0,1,.33-0.46,1.968,1.968,0,0,1,.27-0.22,0.513,0.513,0,0,1,.12-0.05,0.97,0.97,0,0,1,.89.24,5.312,5.312,0,0,1,.95.9c0.3,0.35.65,0.75,1.07,1.2a8.036,8.036,0,0,0,1.09.99l0.31,0.19a3.826,3.826,0,0,0,.82.34,1.807,1.807,0,0,0,.87.08l4-.06a1.82,1.82,0,0,0,.92-0.2,0.75,0.75,0,0,0,.39-0.43,1.128,1.128,0,0,0,.01-0.52A1.7,1.7,0,0,0,1198.84,1266.36Z" transform="translate(-1169 -1251)"/>
</svg>
