<svg xmlns="http://www.w3.org/2000/svg" width="27" height="27" viewBox="0 0 27 27">
  <metadata><?xpacket begin="﻿" id="W5M0MpCehiHzreSzNTczkc9d"?>
<x:xmpmeta xmlns:x="adobe:ns:meta/" x:xmptk="Adobe XMP Core 5.6-c138 79.159824, 2016/09/14-01:09:01        ">
   <rdf:RDF xmlns:rdf="http://www.w3.org/1999/02/22-rdf-syntax-ns#">
      <rdf:Description rdf:about=""/>
   </rdf:RDF>
</x:xmpmeta>
                                                                                                    
                                                                                                    
                                                                                                    
                                                                                                    
                                                                                                    
                                                                                                    
                                                                                                    
                                                                                                    
                                                                                                    
                                                                                                    
                                                                                                    
                                                                                                    
                                                                                                    
                                                                                                    
                                                                                                    
                                                                                                    
                                                                                                    
                                                                                                    
                                                                                                    
                                                                                                    
                           
<?xpacket end="w"?></metadata>
<defs>
    <style>
      .cls-1 {
        fill: #fff;
        fill-rule: evenodd;
      }
    </style>
  </defs>
  <path id="Forma_1" data-name="Forma 1" class="cls-1" d="M1109,2602.15a13.285,13.285,0,0,1-19.66,11.52L1082,2616l2.39-7.06a13.054,13.054,0,0,1-1.9-6.79A13.255,13.255,0,0,1,1109,2602.15Zm-13.25-11.06a11.116,11.116,0,0,0-11.15,11.06,11,11,0,0,0,2.12,6.49l-1.39,4.1,4.28-1.36A11.089,11.089,0,1,0,1095.75,2591.09Zm6.69,14.09a1.713,1.713,0,0,0-.62-0.37c-0.33-.17-1.93-0.95-2.22-1.05a0.519,0.519,0,0,0-.74.16c-0.21.32-.83,1.05-1.02,1.26a0.5,0.5,0,0,1-.71.08,8.866,8.866,0,0,1-2.61-1.6,9.617,9.617,0,0,1-1.81-2.23,0.472,0.472,0,0,1,.14-0.66,7.257,7.257,0,0,0,.49-0.56,2.3,2.3,0,0,0,.33-0.54,0.607,0.607,0,0,0-.03-0.56c-0.08-.17-0.73-1.75-1-2.4s-0.54-.54-0.73-0.54-0.41-.02-0.63-0.02a1.189,1.189,0,0,0-.86.4,3.584,3.584,0,0,0-1.14,2.69,6.126,6.126,0,0,0,1.33,3.33,13.17,13.17,0,0,0,5.55,4.87c3.3,1.29,3.3.86,3.9,0.81a3.3,3.3,0,0,0,2.19-1.54A2.684,2.684,0,0,0,1102.44,2605.18Z" transform="translate(-1082 -2589)"/>
</svg>
