<svg xmlns="http://www.w3.org/2000/svg" width="26" height="26" viewBox="0 0 26 26">
  <metadata><?xpacket begin="﻿" id="W5M0MpCehiHzreSzNTczkc9d"?>
<x:xmpmeta xmlns:x="adobe:ns:meta/" x:xmptk="Adobe XMP Core 5.6-c138 79.159824, 2016/09/14-01:09:01        ">
   <rdf:RDF xmlns:rdf="http://www.w3.org/1999/02/22-rdf-syntax-ns#">
      <rdf:Description rdf:about=""/>
   </rdf:RDF>
</x:xmpmeta>
                                                                                                    
                                                                                                    
                                                                                                    
                                                                                                    
                                                                                                    
                                                                                                    
                                                                                                    
                                                                                                    
                                                                                                    
                                                                                                    
                                                                                                    
                                                                                                    
                                                                                                    
                                                                                                    
                                                                                                    
                                                                                                    
                                                                                                    
                                                                                                    
                                                                                                    
                                                                                                    
                           
<?xpacket end="w"?></metadata>
<defs>
    <style>
      .cls-1 {
        fill: #fff;
        fill-rule: evenodd;
      }
    </style>
  </defs>
  <path class="cls-1" d="M1146.97,2590h-11.94a7.033,7.033,0,0,0-7.03,7.03v11.94a7.033,7.033,0,0,0,7.03,7.03h11.94a7.033,7.033,0,0,0,7.03-7.03v-11.94A7.033,7.033,0,0,0,1146.97,2590Zm4.93,18.97a4.934,4.934,0,0,1-4.93,4.93h-11.94a4.934,4.934,0,0,1-4.93-4.93v-11.94a4.934,4.934,0,0,1,4.93-4.93h11.94a4.934,4.934,0,0,1,4.93,4.93v11.94Zm-5.08-6.88a5.863,5.863,0,0,0-4.91-4.91,6.122,6.122,0,0,0-1.71,0,5.832,5.832,0,0,0,.84,11.6,6.36,6.36,0,0,0,.87-0.06A5.852,5.852,0,0,0,1146.82,2602.09Zm-5.22,4.55a3.731,3.731,0,0,1-1.1-7.38,3.477,3.477,0,0,1,.55-0.04,3.393,3.393,0,0,1,.55.04,3.691,3.691,0,0,1,3.14,3.14A3.736,3.736,0,0,1,1141.6,2606.64Zm6.71-10.96a1.052,1.052,0,0,0-.74-0.3,1.088,1.088,0,0,0-.74.3,1.055,1.055,0,0,0,.74,1.8,1.02,1.02,0,0,0,.74-0.31A1.05,1.05,0,0,0,1148.31,2595.68Z" transform="translate(-1128 -2590)"/>
</svg>
