<svg xmlns="http://www.w3.org/2000/svg" width="26" height="21" viewBox="0 0 26 21">
  <metadata><?xpacket begin="﻿" id="W5M0MpCehiHzreSzNTczkc9d"?>
<x:xmpmeta xmlns:x="adobe:ns:meta/" x:xmptk="Adobe XMP Core 5.6-c138 79.159824, 2016/09/14-01:09:01        ">
   <rdf:RDF xmlns:rdf="http://www.w3.org/1999/02/22-rdf-syntax-ns#">
      <rdf:Description rdf:about=""/>
   </rdf:RDF>
</x:xmpmeta>
                                                                                                    
                                                                                                    
                                                                                                    
                                                                                                    
                                                                                                    
                                                                                                    
                                                                                                    
                                                                                                    
                                                                                                    
                                                                                                    
                                                                                                    
                                                                                                    
                                                                                                    
                                                                                                    
                                                                                                    
                                                                                                    
                                                                                                    
                                                                                                    
                                                                                                    
                                                                                                    
                           
<?xpacket end="w"?></metadata>
<defs>
    <style>
      .cls-1 {
        fill-rule: evenodd;
      }
    </style>
  </defs>
  <path id="Forma_1" data-name="Forma 1" class="cls-1" d="M1514.49,60.5l0.24,1.4h13.66l-2.61,7c-0.41,1.16-.94,2.1-2.1,2.1h-10.54c-1.17,0-1.66-.963-2.11-2.1L1508.27,57H1504v1.4h3.14l2.48,10.5c0.53,1.82,1.57,3.5,3.52,3.5h10.54c1.94,0,2.86-1.492,3.51-3.5l2.81-8.4h-15.51Zm9.19,13.3a2.1,2.1,0,1,0,2.1,2.1A2.1,2.1,0,0,0,1523.68,73.8Zm0.7,2.8h-1.41V75.2h1.41v1.4Zm-11.95-2.8a2.1,2.1,0,1,0,2.11,2.1A2.109,2.109,0,0,0,1512.43,73.8Zm0.71,2.8h-1.41V75.2h1.41v1.4Z" transform="translate(-1504 -57)"/>
</svg>
