<svg xmlns="http://www.w3.org/2000/svg" width="32" height="33" viewBox="0 0 32 33">
  <metadata><?xpacket begin="﻿" id="W5M0MpCehiHzreSzNTczkc9d"?>
<x:xmpmeta xmlns:x="adobe:ns:meta/" x:xmptk="Adobe XMP Core 5.6-c138 79.159824, 2016/09/14-01:09:01        ">
   <rdf:RDF xmlns:rdf="http://www.w3.org/1999/02/22-rdf-syntax-ns#">
      <rdf:Description rdf:about=""/>
   </rdf:RDF>
</x:xmpmeta>
                                                                                                    
                                                                                                    
                                                                                                    
                                                                                                    
                                                                                                    
                                                                                                    
                                                                                                    
                                                                                                    
                                                                                                    
                                                                                                    
                                                                                                    
                                                                                                    
                                                                                                    
                                                                                                    
                                                                                                    
                                                                                                    
                                                                                                    
                                                                                                    
                                                                                                    
                                                                                                    
                           
<?xpacket end="w"?></metadata>
<defs>
    <style>
      .cls-1 {
        fill-rule: evenodd;
      }
    </style>
  </defs>
  <path class="cls-1" d="M1124,2380.37h-1.55v-7.28a3.137,3.137,0,0,0-3.1-3.17h-2.1l-2.15-3.94a1.847,1.847,0,0,0-1.63-.98,1.758,1.758,0,0,0-.9.24l-8.25,4.68h-9.22a3.137,3.137,0,0,0-3.1,3.17v21.74a3.137,3.137,0,0,0,3.1,3.17h24.25a3.137,3.137,0,0,0,3.1-3.17v-6.38H1124v-8.08h0Zm-4.65-9.18a1.879,1.879,0,0,1,1.84,1.69h-2.33l-0.92-1.69h1.41Zm-6.18-4.84a0.622,0.622,0,0,1,.84.24l3.43,6.29h-15.78Zm8.04,28.48a1.885,1.885,0,0,1-1.86,1.9H1095.1a1.885,1.885,0,0,1-1.86-1.9v-21.74a1.885,1.885,0,0,1,1.86-1.9h6.99l-2.98,1.69h-3.62a0.625,0.625,0,0,0-.62.63,0.634,0.634,0,0,0,.62.64h25.72v6.22h-4.54a3.863,3.863,0,0,0-3.82,3.9v0.28a3.863,3.863,0,0,0,3.82,3.9h4.54v6.38h0Zm1.55-7.65h-6.09a2.61,2.61,0,0,1-2.58-2.63v-0.28a2.61,2.61,0,0,1,2.58-2.63h6.09v5.54Zm-4.19-2.72a1.37,1.37,0,1,1-1.37-1.4A1.385,1.385,0,0,1,1118.57,2384.46Z" transform="translate(-1092 -2365)"/>
</svg>
