<svg xmlns="http://www.w3.org/2000/svg" style="display:none"><defs><style>.cls-1{fill-rule:evenodd}</style><style>.cls-1{fill-rule:evenodd}</style><style>.cls-1{fill-rule:evenodd}</style><style>.cls-1{fill-rule:evenodd}</style><style>.cls-1{fill:#fff;fill-rule:evenodd}</style><style>.cls-1{fill:#fff;fill-rule:evenodd}</style></defs><symbol id="icon-adv-01" viewBox="0 0 30 35"><path id="Forma_1" data-name="Forma 1" class="cls-1" d="M529.833 2369.36H524v-2.38a4.076 4.076 0 0 0-4.167-3.98h-1.666a4.076 4.076 0 0 0-4.167 3.98v2.38h-5.833L504 2398h30zm-14.166-2.38a2.447 2.447 0 0 1 2.5-2.39h1.666a2.447 2.447 0 0 1 2.5 2.39v2.38h-6.666v-2.38zm-5.834 3.97H514v3.19h1.667v-3.19h6.666v3.19H524v-3.19h4.167l4.166 25.46h-26.666z" transform="translate(-504 -2363)"/></symbol><symbol id="icon-adv-02" viewBox="0 0 30 30"><path id="Forma_1" data-name="Forma 1" class="cls-1" d="M802.231 2396.65l28.421-28.42 1.117 1.12-28.421 28.42zm4.506-19.18a4.735 4.735 0 1 0-4.737-4.73 4.738 4.738 0 0 0 4.737 4.73zm0-7.89a3.155 3.155 0 1 1-3.158 3.16 3.164 3.164 0 0 1 3.158-3.16zm20.526 18.95a4.735 4.735 0 1 0 4.737 4.73 4.738 4.738 0 0 0-4.737-4.73zm0 7.89a3.155 3.155 0 1 1 3.158-3.16 3.164 3.164 0 0 1-3.158 3.16z" transform="translate(-802 -2368)"/></symbol><symbol id="icon-adv-03" viewBox="0 0 32 33"><path class="cls-1" d="M32 15.37h-1.55V8.09a3.137 3.137 0 0 0-3.1-3.17h-2.1L23.1.98A1.847 1.847 0 0 0 21.47 0a1.758 1.758 0 0 0-.9.24l-8.25 4.68H3.1A3.137 3.137 0 0 0 0 8.09v21.74A3.137 3.137 0 0 0 3.1 33h24.25a3.137 3.137 0 0 0 3.1-3.17v-6.38H32v-8.08zm-4.65-9.18a1.879 1.879 0 0 1 1.84 1.69h-2.33l-.92-1.69h1.41zm-6.18-4.84a.622.622 0 0 1 .84.24l3.43 6.29H9.66zm8.04 28.48a1.885 1.885 0 0 1-1.86 1.9H3.1a1.885 1.885 0 0 1-1.86-1.9V8.09a1.885 1.885 0 0 1 1.86-1.9h6.99L7.11 7.88H3.49a.625.625 0 0 0-.62.63.634.634 0 0 0 .62.64h25.72v6.22h-4.54a3.863 3.863 0 0 0-3.82 3.9v.28a3.863 3.863 0 0 0 3.82 3.9h4.54v6.38zm1.55-7.65h-6.09a2.61 2.61 0 0 1-2.58-2.63v-.28a2.61 2.61 0 0 1 2.58-2.63h6.09v5.54zm-4.19-2.72a1.37 1.37 0 1 1-1.37-1.4 1.385 1.385 0 0 1 1.37 1.4z"/></symbol><symbol id="icon-adv-04" viewBox="0 0 39 29"><path id="Forma_1" data-name="Forma 1" class="cls-1" d="M1417.26 2369h-33.52a2.766 2.766 0 0 0-2.74 2.78v23.44a2.766 2.766 0 0 0 2.74 2.78h33.52a2.766 2.766 0 0 0 2.74-2.78v-23.44a2.766 2.766 0 0 0-2.74-2.78zm1.44 26.22a1.451 1.451 0 0 1-1.44 1.46h-33.52a1.451 1.451 0 0 1-1.44-1.46v-23.44a1.451 1.451 0 0 1 1.44-1.46h33.52a1.451 1.451 0 0 1 1.44 1.46v23.44zm-27.3-7.11h-5.85a.66.66 0 0 0 0 1.32h5.85a.66.66 0 0 0 0-1.32zm8.45 0H1394a.66.66 0 0 0 0 1.32h5.85a.66.66 0 0 0 0-1.32zm-13.65 3.3h-.65a.66.66 0 0 0 0 1.32h.65a.66.66 0 0 0 0-1.32zm3.9 0h-1.3a.66.66 0 0 0 0 1.32h1.3a.66.66 0 0 0 0-1.32zm3.25 0h-.65a.66.66 0 0 0 0 1.32h.65a.66.66 0 0 0 0-1.32zm3.9 0h-1.3a.66.66 0 0 0 0 1.32h1.3a.66.66 0 0 0 0-1.32zm2.14.19a.65.65 0 1 0 .92 0 .678.678 0 0 0-.92 0zm12.81-6.12a4.554 4.554 0 0 0-2.28.62 4.489 4.489 0 0 0-2.27-.62 4.61 4.61 0 0 0 0 9.22 4.489 4.489 0 0 0 2.27-.62 4.591 4.591 0 1 0 2.28-8.6zm-1.3 4.61a1.377 1.377 0 1 1-.98-2.35 3.277 3.277 0 0 1 .98 2.35zm-6.5 0a3.271 3.271 0 0 1 3.25-3.29 3.191 3.191 0 0 1 1.16.22 4.642 4.642 0 0 0 0 6.14 3.2 3.2 0 0 1-1.16.23 3.28 3.28 0 0 1-3.25-3.3zm7.8 3.3a3.2 3.2 0 0 1-1.16-.23 4.642 4.642 0 0 0 0-6.14 3.191 3.191 0 0 1 1.16-.22 3.3 3.3 0 0 1 0 6.59zm-25.83-9.89h8.76a1.483 1.483 0 0 0 1.47-1.49v-6.25a1.483 1.483 0 0 0-1.47-1.49h-8.76a1.483 1.483 0 0 0-1.47 1.49v6.25a1.483 1.483 0 0 0 1.47 1.49zm2.43-3.95h-2.6v-1.32h2.6v1.32zm-2.6 2.46v-1.15h2.6v1.15a.881.881 0 0 0 .02.17h-2.45a.163.163 0 0 1-.17-.17zm9.1-2.46h-2.6v-1.15a.163.163 0 0 1 .17-.17h2.26a.985.985 0 0 0 .17-.02v1.34zm-.17 2.63h-2.45a.881.881 0 0 0 .02-.17v-1.15h2.6v1.15a.163.163 0 0 1-.17.17zm0-6.59a.169.169 0 0 1 .17.17v.98a.169.169 0 0 1-.17.17h-2.26a1.483 1.483 0 0 0-1.47 1.49v3.61a.163.163 0 0 1-.17.17h-.96a.163.163 0 0 1-.17-.17v-6.25a.169.169 0 0 1 .17-.17h4.86zm-8.76 0h2.45a.985.985 0 0 0-.02.17v1.15h-2.6v-1.15a.169.169 0 0 1 .17-.17z" transform="translate(-1381 -2369)"/></symbol><symbol id="icon-instagram" viewBox="0 0 26 26"><path class="cls-1" d="M18.97 0H7.03A7.033 7.033 0 0 0 0 7.03v11.94A7.033 7.033 0 0 0 7.03 26h11.94A7.033 7.033 0 0 0 26 18.97V7.03A7.033 7.033 0 0 0 18.97 0zm4.93 18.97a4.934 4.934 0 0 1-4.93 4.93H7.03a4.934 4.934 0 0 1-4.93-4.93V7.03A4.934 4.934 0 0 1 7.03 2.1h11.94a4.934 4.934 0 0 1 4.93 4.93v11.94zm-5.08-6.88a5.863 5.863 0 0 0-4.91-4.91 6.122 6.122 0 0 0-1.71 0 5.832 5.832 0 0 0 .84 11.6 6.36 6.36 0 0 0 .87-.06 5.852 5.852 0 0 0 4.91-6.63zm-5.22 4.55a3.731 3.731 0 0 1-1.1-7.38 3.477 3.477 0 0 1 .55-.04 3.393 3.393 0 0 1 .55.04 3.691 3.691 0 0 1 3.14 3.14 3.736 3.736 0 0 1-3.14 4.24zm6.71-10.96a1.052 1.052 0 0 0-.74-.3 1.088 1.088 0 0 0-.74.3 1.055 1.055 0 0 0 .74 1.8 1.02 1.02 0 0 0 .74-.31 1.05 1.05 0 0 0 0-1.49z"/></symbol><symbol id="icon-whatsapp" viewBox="0 0 27 27"><path id="Forma_1" data-name="Forma 1" class="cls-1" d="M1109 2602.15a13.285 13.285 0 0 1-19.66 11.52L1082 2616l2.39-7.06a13.054 13.054 0 0 1-1.9-6.79 13.255 13.255 0 0 1 26.51 0zm-13.25-11.06a11.116 11.116 0 0 0-11.15 11.06 11 11 0 0 0 2.12 6.49l-1.39 4.1 4.28-1.36a11.089 11.089 0 1 0 6.14-20.29zm6.69 14.09a1.713 1.713 0 0 0-.62-.37c-.33-.17-1.93-.95-2.22-1.05a.519.519 0 0 0-.74.16c-.21.32-.83 1.05-1.02 1.26a.5.5 0 0 1-.71.08 8.866 8.866 0 0 1-2.61-1.6 9.617 9.617 0 0 1-1.81-2.23.472.472 0 0 1 .14-.66 7.257 7.257 0 0 0 .49-.56 2.3 2.3 0 0 0 .33-.54.607.607 0 0 0-.03-.56c-.08-.17-.73-1.75-1-2.4s-.54-.54-.73-.54-.41-.02-.63-.02a1.189 1.189 0 0 0-.86.4 3.584 3.584 0 0 0-1.14 2.69 6.126 6.126 0 0 0 1.33 3.33 13.17 13.17 0 0 0 5.55 4.87c3.3 1.29 3.3.86 3.9.81a3.3 3.3 0 0 0 2.19-1.54 2.684 2.684 0 0 0 .19-1.53z" transform="translate(-1082 -2589)"/></symbol><symbol id="temp-icon-left-arrow" viewBox="0 0 31.494 31.494"><path d="M10.273 5.01a1.117 1.117 0 0 1 1.587 1.57l-8.047 8.047h26.554c.62 0 1.127.492 1.127 1.11 0 .62-.508 1.128-1.127 1.128H3.813l8.047 8.032c.43.444.43 1.16 0 1.587a1.112 1.112 0 0 1-1.587 0L.32 16.532a1.12 1.12 0 0 1 0-1.57l9.953-9.953z" fill="#1E201D"/></symbol><symbol id="temp-icon-right-arrow" viewBox="0 0 31.49 31.49"><path d="M21.205 5.007a1.117 1.117 0 0 0-1.587 1.57l8.047 8.048H1.11c-.618 0-1.11.493-1.11 1.112 0 .62.492 1.127 1.11 1.127h26.555l-8.047 8.032c-.43.444-.43 1.16 0 1.587.444.444 1.16.444 1.587 0l9.952-9.952a1.092 1.092 0 0 0 0-1.57l-9.952-9.95z" fill="#1E201D"/></symbol></svg>