<svg xmlns="http://www.w3.org/2000/svg" style="display:none"><defs><style>.cls-1{fill-rule:evenodd}</style><style>.cls-1{fill-rule:evenodd}</style><style>.cls-1{fill-rule:evenodd}</style><style>.cls-1{fill-rule:evenodd}</style><style>.cls-1{fill-rule:evenodd}</style><style>.cls-1{fill-rule:evenodd}</style><style>.cls-1{fill:#fff;fill-rule:evenodd}</style><style>.cls-1{fill-rule:evenodd}</style><style>.cls-1{fill:#bdbdbd;fill-rule:evenodd}</style><style>.cls-1{fill:#bdbdbd;fill-rule:evenodd}</style><style>.cls-1{fill:#fff;fill-rule:evenodd}</style></defs><symbol id="icon-adv-01" viewBox="0 0 30 35"><path id="Forma_1" data-name="Forma 1" class="cls-1" d="M529.833 2369.36H524v-2.38a4.076 4.076 0 0 0-4.167-3.98h-1.666a4.076 4.076 0 0 0-4.167 3.98v2.38h-5.833L504 2398h30zm-14.166-2.38a2.447 2.447 0 0 1 2.5-2.39h1.666a2.447 2.447 0 0 1 2.5 2.39v2.38h-6.666v-2.38zm-5.834 3.97H514v3.19h1.667v-3.19h6.666v3.19H524v-3.19h4.167l4.166 25.46h-26.666z" transform="translate(-504 -2363)"/></symbol><symbol id="icon-adv-02" viewBox="0 0 30 30"><path id="Forma_1" data-name="Forma 1" class="cls-1" d="M802.231 2396.65l28.421-28.42 1.117 1.12-28.421 28.42zm4.506-19.18a4.735 4.735 0 1 0-4.737-4.73 4.738 4.738 0 0 0 4.737 4.73zm0-7.89a3.155 3.155 0 1 1-3.158 3.16 3.164 3.164 0 0 1 3.158-3.16zm20.526 18.95a4.735 4.735 0 1 0 4.737 4.73 4.738 4.738 0 0 0-4.737-4.73zm0 7.89a3.155 3.155 0 1 1 3.158-3.16 3.164 3.164 0 0 1-3.158 3.16z" transform="translate(-802 -2368)"/></symbol><symbol id="icon-adv-03" viewBox="0 0 32 33"><path class="cls-1" d="M32 15.37h-1.55V8.09a3.137 3.137 0 0 0-3.1-3.17h-2.1L23.1.98A1.847 1.847 0 0 0 21.47 0a1.758 1.758 0 0 0-.9.24l-8.25 4.68H3.1A3.137 3.137 0 0 0 0 8.09v21.74A3.137 3.137 0 0 0 3.1 33h24.25a3.137 3.137 0 0 0 3.1-3.17v-6.38H32v-8.08zm-4.65-9.18a1.879 1.879 0 0 1 1.84 1.69h-2.33l-.92-1.69h1.41zm-6.18-4.84a.622.622 0 0 1 .84.24l3.43 6.29H9.66zm8.04 28.48a1.885 1.885 0 0 1-1.86 1.9H3.1a1.885 1.885 0 0 1-1.86-1.9V8.09a1.885 1.885 0 0 1 1.86-1.9h6.99L7.11 7.88H3.49a.625.625 0 0 0-.62.63.634.634 0 0 0 .62.64h25.72v6.22h-4.54a3.863 3.863 0 0 0-3.82 3.9v.28a3.863 3.863 0 0 0 3.82 3.9h4.54v6.38zm1.55-7.65h-6.09a2.61 2.61 0 0 1-2.58-2.63v-.28a2.61 2.61 0 0 1 2.58-2.63h6.09v5.54zm-4.19-2.72a1.37 1.37 0 1 1-1.37-1.4 1.385 1.385 0 0 1 1.37 1.4z"/></symbol><symbol id="icon-adv-04" viewBox="0 0 39 29"><path id="Forma_1" data-name="Forma 1" class="cls-1" d="M1417.26 2369h-33.52a2.766 2.766 0 0 0-2.74 2.78v23.44a2.766 2.766 0 0 0 2.74 2.78h33.52a2.766 2.766 0 0 0 2.74-2.78v-23.44a2.766 2.766 0 0 0-2.74-2.78zm1.44 26.22a1.451 1.451 0 0 1-1.44 1.46h-33.52a1.451 1.451 0 0 1-1.44-1.46v-23.44a1.451 1.451 0 0 1 1.44-1.46h33.52a1.451 1.451 0 0 1 1.44 1.46v23.44zm-27.3-7.11h-5.85a.66.66 0 0 0 0 1.32h5.85a.66.66 0 0 0 0-1.32zm8.45 0H1394a.66.66 0 0 0 0 1.32h5.85a.66.66 0 0 0 0-1.32zm-13.65 3.3h-.65a.66.66 0 0 0 0 1.32h.65a.66.66 0 0 0 0-1.32zm3.9 0h-1.3a.66.66 0 0 0 0 1.32h1.3a.66.66 0 0 0 0-1.32zm3.25 0h-.65a.66.66 0 0 0 0 1.32h.65a.66.66 0 0 0 0-1.32zm3.9 0h-1.3a.66.66 0 0 0 0 1.32h1.3a.66.66 0 0 0 0-1.32zm2.14.19a.65.65 0 1 0 .92 0 .678.678 0 0 0-.92 0zm12.81-6.12a4.554 4.554 0 0 0-2.28.62 4.489 4.489 0 0 0-2.27-.62 4.61 4.61 0 0 0 0 9.22 4.489 4.489 0 0 0 2.27-.62 4.591 4.591 0 1 0 2.28-8.6zm-1.3 4.61a1.377 1.377 0 1 1-.98-2.35 3.277 3.277 0 0 1 .98 2.35zm-6.5 0a3.271 3.271 0 0 1 3.25-3.29 3.191 3.191 0 0 1 1.16.22 4.642 4.642 0 0 0 0 6.14 3.2 3.2 0 0 1-1.16.23 3.28 3.28 0 0 1-3.25-3.3zm7.8 3.3a3.2 3.2 0 0 1-1.16-.23 4.642 4.642 0 0 0 0-6.14 3.191 3.191 0 0 1 1.16-.22 3.3 3.3 0 0 1 0 6.59zm-25.83-9.89h8.76a1.483 1.483 0 0 0 1.47-1.49v-6.25a1.483 1.483 0 0 0-1.47-1.49h-8.76a1.483 1.483 0 0 0-1.47 1.49v6.25a1.483 1.483 0 0 0 1.47 1.49zm2.43-3.95h-2.6v-1.32h2.6v1.32zm-2.6 2.46v-1.15h2.6v1.15a.881.881 0 0 0 .02.17h-2.45a.163.163 0 0 1-.17-.17zm9.1-2.46h-2.6v-1.15a.163.163 0 0 1 .17-.17h2.26a.985.985 0 0 0 .17-.02v1.34zm-.17 2.63h-2.45a.881.881 0 0 0 .02-.17v-1.15h2.6v1.15a.163.163 0 0 1-.17.17zm0-6.59a.169.169 0 0 1 .17.17v.98a.169.169 0 0 1-.17.17h-2.26a1.483 1.483 0 0 0-1.47 1.49v3.61a.163.163 0 0 1-.17.17h-.96a.163.163 0 0 1-.17-.17v-6.25a.169.169 0 0 1 .17-.17h4.86zm-8.76 0h2.45a.985.985 0 0 0-.02.17v1.15h-2.6v-1.15a.169.169 0 0 1 .17-.17z" transform="translate(-1381 -2369)"/></symbol><symbol id="icon-basket" viewBox="0 0 26 21"><path id="Forma_1" data-name="Forma 1" class="cls-1" d="M1514.49 60.5l.24 1.4h13.66l-2.61 7c-.41 1.16-.94 2.1-2.1 2.1h-10.54c-1.17 0-1.66-.963-2.11-2.1l-2.76-11.9H1504v1.4h3.14l2.48 10.5c.53 1.82 1.57 3.5 3.52 3.5h10.54c1.94 0 2.86-1.492 3.51-3.5l2.81-8.4h-15.51zm9.19 13.3a2.1 2.1 0 1 0 2.1 2.1 2.1 2.1 0 0 0-2.1-2.1zm.7 2.8h-1.41v-1.4h1.41v1.4zm-11.95-2.8a2.1 2.1 0 1 0 2.11 2.1 2.109 2.109 0 0 0-2.11-2.1zm.71 2.8h-1.41v-1.4h1.41v1.4z" transform="translate(-1504 -57)"/></symbol><symbol id="icon-fa" viewBox="0 0 12 21"><path id="Forma_1" data-name="Forma 1" class="cls-1" d="M1236.55 1249h-2.88c-3.23 0-5.32 2.03-5.32 5.17v2.38h-2.9a.438.438 0 0 0-.45.43v3.45a.438.438 0 0 0 .45.43h2.9v8.71a.438.438 0 0 0 .45.43h3.77a.447.447 0 0 0 .46-.43v-8.71h3.38a.438.438 0 0 0 .45-.43v-3.45a.4.4 0 0 0-.13-.3.463.463 0 0 0-.32-.13h-3.38v-2.02c0-.97.24-1.46 1.58-1.46h1.94a.444.444 0 0 0 .45-.43v-3.21a.444.444 0 0 0-.45-.43z" transform="translate(-1225 -1249)"/></symbol><symbol id="icon-instagram" viewBox="0 0 26 26"><path class="cls-1" d="M18.97 0H7.03A7.033 7.033 0 0 0 0 7.03v11.94A7.033 7.033 0 0 0 7.03 26h11.94A7.033 7.033 0 0 0 26 18.97V7.03A7.033 7.033 0 0 0 18.97 0zm4.93 18.97a4.934 4.934 0 0 1-4.93 4.93H7.03a4.934 4.934 0 0 1-4.93-4.93V7.03A4.934 4.934 0 0 1 7.03 2.1h11.94a4.934 4.934 0 0 1 4.93 4.93v11.94zm-5.08-6.88a5.863 5.863 0 0 0-4.91-4.91 6.122 6.122 0 0 0-1.71 0 5.832 5.832 0 0 0 .84 11.6 6.36 6.36 0 0 0 .87-.06 5.852 5.852 0 0 0 4.91-6.63zm-5.22 4.55a3.731 3.731 0 0 1-1.1-7.38 3.477 3.477 0 0 1 .55-.04 3.393 3.393 0 0 1 .55.04 3.691 3.691 0 0 1 3.14 3.14 3.736 3.736 0 0 1-3.14 4.24zm6.71-10.96a1.052 1.052 0 0 0-.74-.3 1.088 1.088 0 0 0-.74.3 1.055 1.055 0 0 0 .74 1.8 1.02 1.02 0 0 0 .74-.31 1.05 1.05 0 0 0 0-1.49z"/></symbol><symbol id="icon-search" viewBox="0 0 24 24"><path class="cls-1" d="M23.792 22.776l-5.834-5.833a10.242 10.242 0 1 0-1.011 1.011l5.833 5.832a.725.725 0 0 0 .506.213.7.7 0 0 0 .506-.213.721.721 0 0 0 0-1.01zM1.432 10.233a8.8 8.8 0 1 1 8.8 8.8 8.807 8.807 0 0 1-8.8-8.8z"/></symbol><symbol id="icon-tw" viewBox="0 0 23 19"><path id="Forma_1" data-name="Forma 1" class="cls-1" d="M1288 1252.25a9.24 9.24 0 0 1-2.71.75 4.778 4.778 0 0 0 2.07-2.65 9.216 9.216 0 0 1-2.99 1.16 4.688 4.688 0 0 0-3.45-1.51 4.757 4.757 0 0 0-4.71 4.8 4.921 4.921 0 0 0 .12 1.09 13.347 13.347 0 0 1-9.73-5.01 4.9 4.9 0 0 0-.64 2.41 4.833 4.833 0 0 0 2.1 3.99 4.61 4.61 0 0 1-2.14-.6v.06a4.793 4.793 0 0 0 3.79 4.71 4.635 4.635 0 0 1-1.24.16 5.168 5.168 0 0 1-.89-.08 4.739 4.739 0 0 0 4.41 3.33 9.358 9.358 0 0 1-5.86 2.05 10.416 10.416 0 0 1-1.13-.06 13.208 13.208 0 0 0 7.23 2.15c8.68 0 13.43-7.31 13.43-13.65 0-.21-.01-.41-.01-.62a9.568 9.568 0 0 0 2.35-2.48z" transform="translate(-1265 -1250)"/></symbol><symbol id="icon-vk" viewBox="0 0 30 17"><path id="Forma_1" data-name="Forma 1" class="cls-1" d="M1198.84 1266.36c-.04-.08-.07-.15-.1-.2a15.615 15.615 0 0 0-2.99-3.43l-.03-.03-.01-.01-.02-.02h-.01c-.67-.63-1.09-1.06-1.27-1.27a1.218 1.218 0 0 1-.22-1.26 12.152 12.152 0 0 1 1.41-2.03c.43-.55.76-.99 1.01-1.32 1.8-2.38 2.59-3.9 2.35-4.56l-.1-.16a.924.924 0 0 0-.48-.26 2.478 2.478 0 0 0-1-.03l-4.5.03a.534.534 0 0 0-.31 0c-.14.04-.2.05-.2.05l-.08.04-.06.05a.625.625 0 0 0-.18.16 1.174 1.174 0 0 0-.15.27 25.619 25.619 0 0 1-1.67 3.49c-.39.64-.74 1.2-1.07 1.67a7.6 7.6 0 0 1-.81 1.04 6.627 6.627 0 0 1-.59.54.6.6 0 0 1-.41.17c-.09-.02-.18-.05-.26-.07a.918.918 0 0 1-.35-.38 1.633 1.633 0 0 1-.18-.6q-.045-.36-.06-.63c0-.18 0-.42.01-.74s.02-.54.02-.66c0-.39 0-.82.02-1.28s.03-.82.04-1.09.01-.55.01-.85a4.253 4.253 0 0 0-.05-.71 2.27 2.27 0 0 0-.17-.5.826.826 0 0 0-.32-.37 1.661 1.661 0 0 0-.52-.21 10.7 10.7 0 0 0-2.11-.2 10.318 10.318 0 0 0-3.73.37 2.041 2.041 0 0 0-.59.47c-.19.22-.22.35-.08.37a1.931 1.931 0 0 1 1.33.67l.09.18a3.127 3.127 0 0 1 .22.72 7.42 7.42 0 0 1 .14 1.13 12.474 12.474 0 0 1 0 1.94q-.075.81-.15 1.26a2.782 2.782 0 0 1-.21.73 2.91 2.91 0 0 1-.19.34.23.23 0 0 1-.08.07.984.984 0 0 1-.42.08 1.034 1.034 0 0 1-.53-.21 4.343 4.343 0 0 1-.65-.6 8.568 8.568 0 0 1-.75-1.07 15.376 15.376 0 0 1-.88-1.61l-.25-.45c-.15-.29-.37-.71-.64-1.26s-.51-1.09-.72-1.61a1.063 1.063 0 0 0-.37-.5l-.08-.04a1.3 1.3 0 0 0-.25-.14 1.893 1.893 0 0 0-.36-.1l-4.28.03a1.082 1.082 0 0 0-.89.3l-.06.09a.521.521 0 0 0-.05.25 1.138 1.138 0 0 0 .1.42q.93 2.19 2.03 4.22c.74 1.36 1.38 2.45 1.92 3.28s1.09 1.6 1.65 2.34.94 1.2 1.12 1.41.32.36.43.47l.39.37a9.821 9.821 0 0 0 1.1.89 17.977 17.977 0 0 0 1.61 1.03 8.946 8.946 0 0 0 2.05.82 6.946 6.946 0 0 0 2.28.25h1.8a1.244 1.244 0 0 0 .83-.34l.06-.08a1.1 1.1 0 0 0 .12-.28 1.88 1.88 0 0 0 .05-.43 5.025 5.025 0 0 1 .1-1.2 3.15 3.15 0 0 1 .27-.81 2.358 2.358 0 0 1 .33-.46 1.968 1.968 0 0 1 .27-.22.513.513 0 0 1 .12-.05.97.97 0 0 1 .89.24 5.312 5.312 0 0 1 .95.9c.3.35.65.75 1.07 1.2a8.036 8.036 0 0 0 1.09.99l.31.19a3.826 3.826 0 0 0 .82.34 1.807 1.807 0 0 0 .87.08l4-.06a1.82 1.82 0 0 0 .92-.2.75.75 0 0 0 .39-.43 1.128 1.128 0 0 0 .01-.52 1.7 1.7 0 0 0-.11-.41z" transform="translate(-1169 -1251)"/></symbol><symbol id="icon-whatsapp" viewBox="0 0 27 27"><path id="Forma_1" data-name="Forma 1" class="cls-1" d="M1109 2602.15a13.285 13.285 0 0 1-19.66 11.52L1082 2616l2.39-7.06a13.054 13.054 0 0 1-1.9-6.79 13.255 13.255 0 0 1 26.51 0zm-13.25-11.06a11.116 11.116 0 0 0-11.15 11.06 11 11 0 0 0 2.12 6.49l-1.39 4.1 4.28-1.36a11.089 11.089 0 1 0 6.14-20.29zm6.69 14.09a1.713 1.713 0 0 0-.62-.37c-.33-.17-1.93-.95-2.22-1.05a.519.519 0 0 0-.74.16c-.21.32-.83 1.05-1.02 1.26a.5.5 0 0 1-.71.08 8.866 8.866 0 0 1-2.61-1.6 9.617 9.617 0 0 1-1.81-2.23.472.472 0 0 1 .14-.66 7.257 7.257 0 0 0 .49-.56 2.3 2.3 0 0 0 .33-.54.607.607 0 0 0-.03-.56c-.08-.17-.73-1.75-1-2.4s-.54-.54-.73-.54-.41-.02-.63-.02a1.189 1.189 0 0 0-.86.4 3.584 3.584 0 0 0-1.14 2.69 6.126 6.126 0 0 0 1.33 3.33 13.17 13.17 0 0 0 5.55 4.87c3.3 1.29 3.3.86 3.9.81a3.3 3.3 0 0 0 2.19-1.54 2.684 2.684 0 0 0 .19-1.53z" transform="translate(-1082 -2589)"/></symbol><symbol id="temp-icon-left-arrow" viewBox="0 0 31.494 31.494"><path d="M10.273 5.01a1.117 1.117 0 0 1 1.587 1.57l-8.047 8.047h26.554c.62 0 1.127.492 1.127 1.11 0 .62-.508 1.128-1.127 1.128H3.813l8.047 8.032c.43.444.43 1.16 0 1.587a1.112 1.112 0 0 1-1.587 0L.32 16.532a1.12 1.12 0 0 1 0-1.57l9.953-9.953z" fill="#1E201D"/></symbol><symbol id="temp-icon-right-arrow" viewBox="0 0 31.49 31.49"><path d="M21.205 5.007a1.117 1.117 0 0 0-1.587 1.57l8.047 8.048H1.11c-.618 0-1.11.493-1.11 1.112 0 .62.492 1.127 1.11 1.127h26.555l-8.047 8.032c-.43.444-.43 1.16 0 1.587.444.444 1.16.444 1.587 0l9.952-9.952a1.092 1.092 0 0 0 0-1.57l-9.952-9.95z" fill="#1E201D"/></symbol></svg>